# xmcd
#
# Track frame offsets: 
#        150
#        17992
#        35815
#        48302
#        61421
#        77781
#        89181
#        93082
#        108056
#        119366
#        135286
#        151900
#        174738
#
# Disc length: 2599 seconds
#
# Revision: 2
# Processed by: cddbd v1.5.2PL0 Copyright (c) Steve Scherf et al.
# Submitted via: ExactAudioCopy v1.0b1
#
DISCID=a50a250d
DTITLE=Little Hurricane - Homewrecker
DYEAR=2012
DGENRE=Blues
TTITLE0=Crocodile Tears
TTITLE1=Trouble Ahead
TTITLE2=Haunted Heart
TTITLE3=Fourth of July
TTITLE4=Shortbread
TTITLE5=Get By
TTITLE6=Hold Me Back
TTITLE7=Lies
TTITLE8=Sun Sets West
TTITLE9=Sweetpea
TTITLE10=Tear Bucket
TTITLE11=Homewrecker
TTITLE12=Give Em Hell
EXTD=
EXTT0=
EXTT1=
EXTT2=
EXTT3=
EXTT4=
EXTT5=
EXTT6=
EXTT7=
EXTT8=
EXTT9=
EXTT10=
EXTT11=
EXTT12=
PLAYORDER=
